{"title":"The Jungle Book 2016 CAM XviD AC3-VAiN","uid":14271588,"size":1491520302,"categoryP":"video","categoryS":"movies","magnet":"?xt=urn:btih:d8c953a7f5f472e9b4aa4a21da58029d3e40f275&amp;dn=The+Jungle+Book+2016+CAM+XviD+AC3-VAiN+++&amp;tr=udp%3A%2F%2Ftracker.leechers-paradise.org%3A6969&amp;tr=udp%3A%2F%2Fzer0day.ch%3A1337&amp;tr=udp%3A%2F%2Fopen.demonii.com%3A1337&amp;tr=udp%3A%2F%2Ftracker.coppersurfer.tk%3A6969&amp;tr=udp%3A%2F%2Fexodus.desync.com%3A6969","seeders":0,"leechers":1,"uploader":"makintos13","files":3,"time":1460317210,"description":"screens:\r\n \nhttp://imgmak.com/KXU\r\n \nhttp://imgmak.com/KX3\r\n \nhttp://imgmak.com/KXG\r\n\r\nP R E S E N T S . . . .\r\n\r\nThe.Jungle.Book.2016.CAM.XviD.AC3-VAiN\r\n\r\niMDB........: http://www.imdb.com/title/tt3040964/\r\n\r\nPLOT........: An orphan boy is raised in the jungle with the help of a pack of wolves, a bear, and a black panther.\r\n\r\n\r\nT E C H N i C A L . i N F O . . .\r\n\r\nBasic Information\r\nFormat                      : MPEG-4 Visual\r\nFormat profile              : Advanced   \r\nFormat settings, BVOP       : 2\r\nFormat settings, QPel       : No\r\nFormat settings, GMC        : No warppoints\r\nFormat settings, Matrix     : Default (H.263)\r\nMuxing mode                 : Packed bitstream\r\nCodec ID                    : XVID\r\nCodec ID/Hint               : XviD\r\nDuration                    : 1h 29mn\r\nBit rate                    : 1 984 Kbps\r\nWidth                       : 720 pixels\r\nHeight                      : 320 pixels\r\nDisplay aspect ratio        : 2.25:1\r\nFrame rate                  : 29.970 (29970/1000) fps\r\nColor space                 : YUV\r\nChroma subsampling          : 4:2:0\r\nBit depth                   : 8 bits\r\nScan type                   : Progressive\r\nCompression mode            : Lossy\r\nBits/(Pixel*Frame)          : 0.287\r\nStream size                 : 1.24 GiB (91%)\r\nWriting library             : XviD 64\r\n\r\nAudio\r\nID                          : 1\r\nFormat                      : AC-3\r\nFormat/Info                 : Audio Coding 3\r\nMode extension              : CM (complete main)\r\nFormat settings, Endianness : Big\r\nCodec ID                    : 2000\r\nDuration                    : 1h 29mn\r\nBit rate mode               : Constant\r\nBit rate                    : 192 Kbps\r\nChannel(s)                  : 2 channels\r\nChannel positions           : Front: L R\r\nSampling rate               : 48.0 KHz\r\nFrame rate                  : 31.250 fps (1536 spf)\r\nCompression mode            : Lossy\r\nStream size                 : 123 MiB (9%)\r\nAlignment                   : Aligned on interleaves\r\nInterleave, duration        : 33 ms (1.00 video frame)\r\nInterleave, preload duratio : 512 ms\r\n\r\n\r\n\r\n\r\nE N C O D E R S . N O T E S . . .      \r\n\r\nSOURCE......: Russian + UnKnOwN + A.C.A.B.\r\n............:\r\nSAMPLE......: Yippers\r\nADDED NOTE..: resized, adjusted rgb, lvls, sharp and a few other filter. audio is ok it's just a cam though. ran that thru a few filters to try to help out.\r\nbeware there are few dark spots in the movie, they go into a cave and gets pretty dark. took screens to try to represent encode w/ the gud n' bad...\r\n\r\nV/6 A/4.5 M/6 just not my cuppa tea....\r\n\r\nenjoy or don't. sample is there for all to see","torrent":{"xt":"urn:btih:d8c953a7f5f472e9b4aa4a21da58029d3e40f275","amp;dn":"The+Jungle+Book+2016+CAM+XviD+AC3-VAiN+++","amp;tr":["udp%3A%2F%2Ftracker.leechers-paradise.org%3A6969","udp%3A%2F%2Fzer0day.ch%3A1337","udp%3A%2F%2Fopen.demonii.com%3A1337","udp%3A%2F%2Ftracker.coppersurfer.tk%3A6969","udp%3A%2F%2Fexodus.desync.com%3A6969"],"infoHash":"d8c953a7f5f472e9b4aa4a21da58029d3e40f275","infoHashBuffer":{"type":"Buffer","data":[216,201,83,167,245,244,114,233,180,170,74,33,218,88,2,157,62,64,242,117]},"announce":[],"urlList":[]}}